<?xml version="1.0" encoding="UTF-8"?>
<svg version="1.1" xmlns="http://www.w3.org/2000/svg" width="309" height="189">
<path d="M0 0 C101.97 0 203.94 0 309 0 C309 62.37 309 124.74 309 189 C207.03 189 105.06 189 0 189 C0 126.63 0 64.26 0 0 Z " fill="#FCFDFE" transform="translate(0,0)"/>
<path d="M0 0 C8.25 0 16.5 0 25 0 C25.34044616 8.41547992 25.61487782 16.82551928 25.77718258 25.24606037 C25.85512986 29.15730453 25.96056408 33.06355541 26.1315918 36.97192383 C27.29922371 64.34847541 27.29922371 64.34847541 21.73486328 70.52490234 C17.65543283 73.95438076 13.12566828 76.429748 7.83506775 77.39497375 C7.22949539 77.59463242 6.62392303 77.79429108 6 78 C5.505 79.485 5.505 79.485 5 81 C1.5065403 82.74672985 -1.06845568 84 -5 84 C-5.33 84.99 -5.66 85.98 -6 87 C-8.40625 88.02734375 -8.40625 88.02734375 -11.5 88.9375 C-16.25440409 90.40518851 -20.68484303 92.09880668 -25.16015625 94.265625 C-27 95 -27 95 -30 95 C-30 95.66 -30 96.32 -30 97 C-30.99 97 -31.98 97 -33 97 C-33.11581961 86.89926937 -33.20467755 76.79869654 -33.25906086 66.69743729 C-33.28516155 62.00703742 -33.32056787 57.31709163 -33.37719727 52.62695312 C-33.43150075 48.1011585 -33.46141698 43.57580076 -33.47438622 39.04970551 C-33.48362915 37.32246776 -33.50167872 35.59525409 -33.52865028 33.86820221 C-33.56492026 31.44969409 -33.56994648 29.03299387 -33.56762695 26.61425781 C-33.58560333 25.89928131 -33.60357971 25.18430481 -33.62210083 24.44766235 C-33.60127258 22.44219971 -33.60127258 22.44219971 -33 19 C-30.61174011 16.68133545 -30.61174011 16.68133545 -28 15 C-27.22269531 14.16984375 -26.44539062 13.3396875 -25.64453125 12.484375 C-22.54132438 9.56910237 -19.53343141 7.98436341 -15.6875 6.25 C-15.06166016 5.94707031 -14.43582031 5.64414062 -13.79101562 5.33203125 C-9.17816613 3.20302379 -5.05998712 2.42681356 0 2 C0 1.34 0 0.68 0 0 Z " fill="#124FA0" transform="translate(187,28)"/>
<path d="M0 0 C1.92392578 -0.00773437 1.92392578 -0.00773437 3.88671875 -0.015625 C7.11049543 0.23433716 8.56942254 0.73952618 11.3125 2.25 C11.42825219 12.3680017 11.51714317 22.48584641 11.57156086 32.60437489 C11.5976763 37.30264959 11.63310942 42.00047198 11.68969727 46.69848633 C11.7439483 51.23076012 11.77390586 55.76259836 11.78688622 60.29517174 C11.79613861 62.02602689 11.81420637 63.75685769 11.84115028 65.48752785 C11.87735067 67.90863531 11.88244941 70.32793387 11.88012695 72.74926758 C11.89810333 73.46783936 11.91607971 74.18641113 11.93460083 74.92675781 C11.91377258 76.92805481 11.91377258 76.92805481 11.3125 80.25 C2.28576049 87.54421876 -14.8199595 85.73065576 -24.6875 86.25 C-24.6875 73.38 -24.6875 60.51 -24.6875 47.25 C-31.80134723 50.80692362 -36.76322645 54.19773637 -42.6875 59.25 C-43.52667969 59.95382813 -44.36585937 60.65765625 -45.23046875 61.3828125 C-53.91658612 68.89731404 -62.77799586 76.81203082 -63.92578125 88.72265625 C-64.1341105 92.76424365 -64.04546473 95.51850686 -62.25 99.1875 C-55.31642523 104.76818213 -46.66810388 104.75726574 -38.125 104.9375 C-37.02091797 104.97166016 -35.91683594 105.00582031 -34.77929688 105.04101562 C-32.08213297 105.12274786 -29.38526357 105.19213826 -26.6875 105.25 C-27.0175 105.91 -27.3475 106.57 -27.6875 107.25 C-29.62109375 107.73657227 -29.62109375 107.73657227 -32.125 108.06640625 C-33.01960938 108.19080078 -33.91421875 108.31519531 -34.8359375 108.44335938 C-35.77695313 108.56517578 -36.71796875 108.68699219 -37.6875 108.8125 C-39.54214996 109.0602101 -41.39634892 109.3113289 -43.25 109.56640625 C-44.07628906 109.67412354 -44.90257812 109.78184082 -45.75390625 109.89282227 C-47.68754955 110.06108367 -47.68754955 110.06108367 -48.6875 111.25 C-52.65597945 111.49435082 -56.62838892 111.47863451 -60.60375977 111.49023438 C-62.58557249 111.49980951 -64.56724363 111.53093668 -66.54882812 111.5625 C-84.6361709 111.63583945 -84.6361709 111.63583945 -91.3125 105.0625 C-93.56325899 101.99503704 -94.58805718 99.26981716 -94.27734375 95.359375 C-93.07815168 91.07087356 -90.41890712 87.69832743 -87.6875 84.25 C-86.93855469 83.28578125 -86.18960938 82.3215625 -85.41796875 81.328125 C-82.5540113 77.91770138 -79.22689694 75.30223614 -75.6875 72.625 C-74.47906985 71.69543835 -73.27073484 70.765753 -72.0625 69.8359375 C-71.53398438 69.4342334 -71.00546875 69.0325293 -70.4609375 68.61865234 C-69.05443153 67.53317981 -67.66982592 66.41933884 -66.29345703 65.29589844 C-58.43035929 59.12269635 -49.49055005 54.2948394 -40.8125 49.375 C-39.80703125 48.79492188 -38.8015625 48.21484375 -37.765625 47.6171875 C-36.79367188 47.06546875 -35.82171875 46.51375 -34.8203125 45.9453125 C-33.95293457 45.45047363 -33.08555664 44.95563477 -32.19189453 44.44580078 C-29.6875 43.25 -29.6875 43.25 -24.6875 42.25 C-24.6875 30.04 -24.6875 17.83 -24.6875 5.25 C-21.3875 4.26 -18.0875 3.27 -14.6875 2.25 C-13.48480469 1.86328125 -12.28210938 1.4765625 -11.04296875 1.078125 C-7.26214891 0.14502394 -3.89078406 -0.01573623 0 0 Z " fill="#1451A1" transform="translate(137.6875,46.75)"/>
<path d="M0 0 C1.65 0 3.3 0 5 0 C5 8.25 5 16.5 5 25 C10.445 24.01 10.445 24.01 16 23 C18.44797012 22.83654499 20.90205235 22.73919473 23.35546875 22.734375 C25.27842773 22.73050781 25.27842773 22.73050781 27.24023438 22.7265625 C28.54283203 22.73429687 29.84542969 22.74203125 31.1875 22.75 C32.50169922 22.74226563 33.81589844 22.73453125 35.16992188 22.7265625 C41.78901198 22.73991417 47.67981868 22.97625706 54 25 C54 25.66 54 26.32 54 27 C54.804375 27.28875 55.60875 27.5775 56.4375 27.875 C59 29 59 29 60 31 C60.97451387 38.65689469 58.2915825 43.73263541 54 50 C51.55356057 52.9527831 48.88699826 55.48144733 46 58 C45.22140625 58.69480469 44.4428125 59.38960937 43.640625 60.10546875 C38.07084914 64.87353445 32.19619425 68.99585241 26.0625 73 C25.32845947 73.48122314 24.59441895 73.96244629 23.83813477 74.45825195 C22.7909729 75.12860474 22.7909729 75.12860474 21.72265625 75.8125 C21.10140869 76.21082031 20.48016113 76.60914062 19.84008789 77.01953125 C18 78 18 78 15.82983398 78.44921875 C15.22598877 78.63097656 14.62214355 78.81273438 14 79 C13.505 80.485 13.505 80.485 13 82 C10.10441559 83.4477922 8.25811062 84 5 84 C5 84.66 5 85.32 5 86 C4.14728516 86.36351563 4.14728516 86.36351563 3.27734375 86.734375 C-0.56422189 88.40183254 -4.28014624 90.09462729 -7.875 92.25 C-11 94 -11 94 -14 94 C-14 94.66 -14 95.32 -14 96 C-14.61746094 96.24234375 -15.23492187 96.4846875 -15.87109375 96.734375 C-21.03678802 98.77863757 -26.09641493 100.92547299 -31.08984375 103.36328125 C-33 104 -33 104 -36 103 C-35.12432373 102.54729736 -35.12432373 102.54729736 -34.23095703 102.08544922 C-31.52723999 100.68528144 -28.82612246 99.28016613 -26.125 97.875 C-25.2071875 97.400625 -24.289375 96.92625 -23.34375 96.4375 C-12.95555442 91.02393329 -3.39194324 84.99460037 6 78 C7.10214844 77.2265625 7.10214844 77.2265625 8.2265625 76.4375 C12.55409417 73.36311457 15.97412738 70.02156448 19.359375 65.9296875 C21 64 21 64 22.97265625 62.10546875 C25.26783668 59.72184206 26.93036716 57.23900247 28.6875 54.4375 C29.28949219 53.48746094 29.89148438 52.53742188 30.51171875 51.55859375 C33.27713368 46.80440273 33.67586767 42.38735098 33 37 C30.2951387 32.8300055 25.65487558 30.52023393 21 29 C15.71039187 27.99181887 10.3541012 27.52457247 5 27 C5.01571045 27.91289795 5.0314209 28.8257959 5.04760742 29.76635742 C5.0988697 33.1676201 5.13641439 36.56846963 5.16479492 39.9699707 C5.17984066 41.43943782 5.20028238 42.90886034 5.22631836 44.37817383 C5.26288955 46.4957177 5.27976801 48.61266565 5.29296875 50.73046875 C5.3086792 52.00301514 5.32438965 53.27556152 5.34057617 54.58666992 C4.97719848 58.22852189 4.24823048 60.13752876 2 63 C1.34 63 0.68 63 0 63 C0 42.21 0 21.42 0 0 Z " fill="#1A55A3" transform="translate(215,27)"/>
<path d="M0 0 C0 7.92 0 15.84 0 24 C-3.8671875 24.0928125 -3.8671875 24.0928125 -7.8125 24.1875 C-26.94256165 25.06386101 -47.15112881 31.15112881 -61 45 C-62.61427171 45.07514357 -64.2317686 45.08315949 -65.84765625 45.0625 C-66.84603516 45.05476563 -67.84441406 45.04703125 -68.87304688 45.0390625 C-70.97200934 45.01335567 -73.07096783 44.98732284 -75.16992188 44.9609375 C-83.52399909 44.89679871 -90.50656397 44.8964517 -98 49 C-98.66 49 -99.32 49 -100 49 C-100 44.71 -100 40.42 -100 36 C-89.78750807 32.15373681 -79.53984948 29.33591693 -68.9375 26.8125 C-68.18645996 26.63332031 -67.43541992 26.45414063 -66.66162109 26.26953125 C-61.24255753 25 -61.24255753 25 -59 25 C-59 24.34 -59 23.68 -59 23 C-58.28714844 22.81824219 -57.57429688 22.63648438 -56.83984375 22.44921875 C-51.31139077 20.99827887 -46.18628727 19.39367105 -41 17 C-39.96875 16.566875 -38.9375 16.13375 -37.875 15.6875 C-33.27596166 13.71944305 -28.75231125 11.58547945 -24.21484375 9.48046875 C-20.84705541 7.92956744 -17.45921289 6.43137439 -14.0625 4.9453125 C-11.25419561 3.65817299 -8.53620039 2.21260399 -5.82421875 0.734375 C-4 0 -4 0 0 0 Z " fill="#1753A2" transform="translate(213,122)"/>
<path d="M0 0 C0.495 2.475 0.495 2.475 1 5 C-0.11375 5.495 -1.2275 5.99 -2.375 6.5 C-7.85989772 9.25210537 -12.35041486 13.03479992 -17 17 C-17.83917969 17.70382813 -18.67835937 18.40765625 -19.54296875 19.1328125 C-28.22908612 26.64731404 -37.09049586 34.56203082 -38.23828125 46.47265625 C-38.4466105 50.51424365 -38.35796473 53.26850686 -36.5625 56.9375 C-29.62892523 62.51818213 -20.98060388 62.50726574 -12.4375 62.6875 C-11.33341797 62.72166016 -10.22933594 62.75582031 -9.09179688 62.79101562 C-6.39463297 62.87274786 -3.69776357 62.94213826 -1 63 C-1.33 63.66 -1.66 64.32 -2 65 C-3.93359375 65.48657227 -3.93359375 65.48657227 -6.4375 65.81640625 C-7.33210938 65.94080078 -8.22671875 66.06519531 -9.1484375 66.19335938 C-10.08945313 66.31517578 -11.03046875 66.43699219 -12 66.5625 C-13.85464996 66.8102101 -15.70884892 67.0613289 -17.5625 67.31640625 C-18.38878906 67.42412354 -19.21507812 67.53184082 -20.06640625 67.64282227 C-22.00004955 67.81108367 -22.00004955 67.81108367 -23 69 C-26.96847945 69.24435082 -30.94088892 69.22863451 -34.91625977 69.24023438 C-36.89807249 69.24980951 -38.87974363 69.28093668 -40.86132812 69.3125 C-58.9486709 69.38583945 -58.9486709 69.38583945 -65.625 62.8125 C-67.87575899 59.74503704 -68.90055718 57.01981716 -68.58984375 53.109375 C-67.39065168 48.82087356 -64.73140712 45.44832743 -62 42 C-61.25105469 41.03578125 -60.50210938 40.0715625 -59.73046875 39.078125 C-56.8665113 35.66770138 -53.53939694 33.05223614 -50 30.375 C-48.79156985 29.44543835 -47.58323484 28.515753 -46.375 27.5859375 C-45.84648438 27.1842334 -45.31796875 26.7825293 -44.7734375 26.36865234 C-43.3667804 25.28306318 -41.98190973 24.16925328 -40.60522461 23.04589844 C-32.69101 16.83081846 -23.69891511 12.02458748 -14.9375 7.125 C-13.90689453 6.54492188 -12.87628906 5.96484375 -11.81445312 5.3671875 C-2.26512303 0 -2.26512303 0 0 0 Z " fill="#1D57A4" transform="translate(112,89)"/>
<path d="M0 0 C0.99 0 1.98 0 3 0 C3 11.55 3 23.1 3 35 C-9.4375 35.8125 -9.4375 35.8125 -13.30249023 36.04614258 C-20.0129231 36.52489861 -25.73966047 37.5829987 -32 40 C-33.14984375 40.34160156 -34.2996875 40.68320313 -35.484375 41.03515625 C-45.25774024 44.10979149 -54.41218993 49.17405709 -60.8671875 57.37109375 C-63 59 -63 59 -66.59765625 58.7578125 C-67.64203857 58.56687012 -67.64203857 58.56687012 -68.70751953 58.37207031 C-72.922038 57.68805262 -77.17784882 57.85657325 -81.4375 57.875 C-82.32759766 57.87113281 -83.21769531 57.86726563 -84.13476562 57.86328125 C-89.83315986 57.87160615 -95.34756703 58.27547655 -101 59 C-101 59.66 -101 60.32 -101 61 C-102.485 61.495 -102.485 61.495 -104 62 C-104 60.35 -104 58.7 -104 57 C-93.72298014 51.68153307 -85.49438205 51.61679898 -74.15820312 52.45898438 C-67.69694733 52.72364532 -63.87063752 52.62955304 -58.93359375 48.19140625 C-58.2780249 47.48830322 -57.62245605 46.7852002 -56.94702148 46.06079102 C-50.98686172 39.7523636 -43.0543775 37.10409406 -34.8828125 34.859375 C-32.08289933 34.12398236 -32.08289933 34.12398236 -29.9921875 32.953125 C-24.19450752 30.17933301 -17.39619686 30.88226588 -11.125 30.9375 C-10.15046875 30.94201172 -9.1759375 30.94652344 -8.171875 30.95117188 C-5.78118566 30.96289094 -3.3906256 30.97929781 -1 31 C-1.00523682 30.09644775 -1.01047363 29.19289551 -1.01586914 28.26196289 C-1.03287686 24.92048511 -1.04543333 21.57905308 -1.05493164 18.23754883 C-1.05997101 16.78929927 -1.06680253 15.34105483 -1.07543945 13.89282227 C-1.08752247 11.81525412 -1.09323211 9.73775303 -1.09765625 7.66015625 C-1.10289307 6.40855713 -1.10812988 5.15695801 -1.11352539 3.86743164 C-1 1 -1 1 0 0 Z " fill="#2C62AA" transform="translate(217,118)"/>
<path d="M0 0 C0.33 0 0.66 0 1 0 C1 9.57 1 19.14 1 29 C-8.9375 29.375 -8.9375 29.375 -12.01147461 29.47802734 C-30.87449562 30.28709627 -48.55225823 37.55225823 -62 51 C-63.94497839 51.03879359 -65.8913323 51.01140484 -67.8359375 50.95703125 C-69.65158203 50.92512695 -69.65158203 50.92512695 -71.50390625 50.89257812 C-74.04586278 50.83999477 -76.58760298 50.7752765 -79.12890625 50.69726562 C-86.62402006 50.59064388 -94.57314764 50.61791183 -101 55 C-101.86274494 57.56342068 -101.86274494 57.56342068 -102 60 C-102.33 60 -102.66 60 -103 60 C-103.07427838 56.65747276 -103.06546953 54.1964086 -102 51 C-100.43359375 49.8671875 -100.43359375 49.8671875 -98.4375 48.875 C-97.79683594 48.54242188 -97.15617187 48.20984375 -96.49609375 47.8671875 C-91.19287273 46.02475391 -85.98198331 45.93644015 -80.43359375 46.11328125 C-79.45326172 46.14357422 -78.47292969 46.17386719 -77.46289062 46.20507812 C-75.44127681 46.27685912 -73.42026298 46.3681046 -71.40039062 46.47851562 C-66.29883801 46.60277991 -62.97874793 46.56664256 -59.015625 43.140625 C-58.01016359 42.09399306 -57.00494902 41.04712393 -56 40 C-47.56433245 33.79300965 -37.80800282 30.29004345 -27.75 27.6875 C-27.10095703 27.51597412 -26.45191406 27.34444824 -25.78320312 27.16772461 C-21.06013861 26.01752654 -16.81959891 25.85541203 -12 26 C-12 26.33 -12 26.66 -12 27 C-8.04 27.33 -4.08 27.66 0 28 C0 18.76 0 9.52 0 0 Z " fill="#D2DDED" transform="translate(215,120)"/>
<path d="M0 0 C1.65 0 3.3 0 5 0 C5.06960318 7.47584448 5.12286342 14.95161873 5.15543652 22.42772198 C5.17107243 25.8994411 5.19227212 29.37093803 5.22631836 32.8425293 C5.26524063 36.83644712 5.27972629 40.83013263 5.29296875 44.82421875 C5.30845261 46.06709152 5.32393646 47.30996429 5.33988953 48.59049988 C5.34022942 50.33173882 5.34022942 50.33173882 5.34057617 52.1081543 C5.34723801 53.12741501 5.35389984 54.14667572 5.36076355 55.19682312 C4.93964653 58.46895384 3.97434053 60.37557975 2 63 C1.34 63 0.68 63 0 63 C0 42.21 0 21.42 0 0 Z " fill="#2B62AA" transform="translate(215,27)"/>
<path d="M0 0 C-0.33 0.33 -0.66 0.66 -1 1 C-1.15888092 3.28988781 -1.25138073 5.58443441 -1.31640625 7.87890625 C-1.33718735 8.5655687 -1.35796844 9.25223114 -1.37937927 9.95970154 C-1.44494143 12.16052935 -1.50379015 14.36147975 -1.5625 16.5625 C-1.60567892 18.05144514 -1.649293 19.54037773 -1.69335938 21.02929688 C-1.8014515 24.68607392 -1.90047374 28.34293947 -2 32 C-8.27 32 -14.54 32 -21 32 C-21 31.67 -21 31.34 -21 31 C-15.11088859 29.97580671 -10.18084076 30 -4 30 C-4 22.08 -4 14.16 -4 6 C-9.58237947 8.23295179 -14.55289114 10.22549298 -19.78515625 12.921875 C-25.34937136 15.63038183 -31.1290937 18.04303123 -37 20 C-37.33 19.01 -37.66 18.02 -38 17 C-38.763125 17.350625 -39.52625 17.70125 -40.3125 18.0625 C-43 19 -43 19 -46 18 C-41.45235334 14.99052795 -37.21157559 13.97390906 -31.9375 12.84375 C-28.88047263 11.96566767 -26.65901782 10.7197402 -24 9 C-21.01642002 7.65028525 -19.29665696 7 -16 7 C-16 6.34 -16 5.68 -16 5 C-14.09118566 3.96455826 -12.17260796 2.94709915 -10.25 1.9375 C-9.18265625 1.36902344 -8.1153125 0.80054687 -7.015625 0.21484375 C-3.97406463 -1.01044806 -2.95106435 -1.25348607 0 0 Z " fill="#EFF3F8" transform="translate(217,116)"/>
<path d="M0 0 C0.99 0 1.98 0 3 0 C3 11.22 3 22.44 3 34 C-6.24 34.33 -15.48 34.66 -25 35 C-24 33 -24 33 -21.4921875 31.8828125 C-17.26528078 30.81426561 -13.45921703 30.7795003 -9.125 30.875 C-7.949375 30.88853516 -7.949375 30.88853516 -6.75 30.90234375 C-4.83319945 30.92571937 -2.91655809 30.96158347 -1 31 C-1.00785522 29.64467163 -1.00785522 29.64467163 -1.01586914 28.26196289 C-1.03287686 24.92048511 -1.04543333 21.57905308 -1.05493164 18.23754883 C-1.05997101 16.78929927 -1.06680253 15.34105483 -1.07543945 13.89282227 C-1.08752247 11.81525412 -1.09323211 9.73775303 -1.09765625 7.66015625 C-1.10289307 6.40855713 -1.10812988 5.15695801 -1.11352539 3.86743164 C-1 1 -1 1 0 0 Z " fill="#1551A1" transform="translate(217,118)"/>
<path d="M0 0 C0.495 0.99 0.495 0.99 1 2 C0.34 2 -0.32 2 -1 2 C-1.309375 2.94875 -1.61875 3.8975 -1.9375 4.875 C-3 8 -3 8 -4 10 C-5.671875 10.74609375 -5.671875 10.74609375 -7.75 11.4375 C-10.36698814 12.35508439 -12.40969799 13.2458188 -14.8125 14.6875 C-17 16 -17 16 -20 16 C-20 16.66 -20 17.32 -20 18 C-20.61746094 18.24234375 -21.23492187 18.4846875 -21.87109375 18.734375 C-27.03678802 20.77863757 -32.09641493 22.92547299 -37.08984375 25.36328125 C-39 26 -39 26 -42 25 C-41.41621582 24.69819824 -40.83243164 24.39639648 -40.23095703 24.08544922 C-37.52723999 22.68528144 -34.82612246 21.28016613 -32.125 19.875 C-31.2071875 19.400625 -30.289375 18.92625 -29.34375 18.4375 C-20.84530281 14.00873175 -12.57346176 9.34949721 -4.875 3.625 C-3.47894531 2.59246094 -3.47894531 2.59246094 -2.0546875 1.5390625 C-1.37664062 1.03117187 -0.69859375 0.52328125 0 0 Z " fill="#4C7AB7" transform="translate(221,105)"/>
<path d="M0 0 C-0.33 0.33 -0.66 0.66 -1 1 C-1.15888092 3.28988781 -1.25138073 5.58443441 -1.31640625 7.87890625 C-1.33718735 8.5655687 -1.35796844 9.25223114 -1.37937927 9.95970154 C-1.44494143 12.16052935 -1.50379015 14.36147975 -1.5625 16.5625 C-1.60567892 18.05144514 -1.649293 19.54037773 -1.69335938 21.02929688 C-1.8014515 24.68607392 -1.90047374 28.34293947 -2 32 C-8.27 32 -14.54 32 -21 32 C-21 31.67 -21 31.34 -21 31 C-15.11088859 29.97580671 -10.18084076 30 -4 30 C-4 22.08 -4 14.16 -4 6 C-5.98 6 -7.96 6 -10 6 C-5.17857143 -1.55357143 -5.17857143 -1.55357143 0 0 Z " fill="#F2F5F9" transform="translate(217,116)"/>
<path d="M0 0 C0.33 0 0.66 0 1 0 C1 9.57 1 19.14 1 29 C-8.9375 29.375 -8.9375 29.375 -12.01147461 29.47802734 C-20.07895279 29.82405601 -27.39439699 31.26978354 -35 34 C-34.67 33.34 -34.34 32.68 -34 32 C-34.66 31.34 -35.32 30.68 -36 30 C-33.50276548 29.32114013 -31.00303859 28.65682573 -28.5 28 C-27.80390625 27.80921875 -27.1078125 27.6184375 -26.390625 27.421875 C-21.4587081 26.14322988 -17.09419909 25.81642526 -12 26 C-12 26.33 -12 26.66 -12 27 C-8.04 27.33 -4.08 27.66 0 28 C0 18.76 0 9.52 0 0 Z " fill="#8DAAD1" transform="translate(215,120)"/>
<path d="M0 0 C0.82242188 0.00451172 1.64484375 0.00902344 2.4921875 0.01367188 C4.49482396 0.02531511 6.49742227 0.04324444 8.5 0.0625 C8.5 0.3925 8.5 0.7225 8.5 1.0625 C0.58 1.5575 0.58 1.5575 -7.5 2.0625 C-3.21 2.3925 1.08 2.7225 5.5 3.0625 C5.5 3.3925 5.5 3.7225 5.5 4.0625 C4.25605469 4.08828125 3.01210937 4.1140625 1.73046875 4.140625 C-12.04015007 4.11674682 -12.04015007 4.11674682 -24.5 9.0625 C-25.34064324 11.62574143 -25.34064324 11.62574143 -25.5 14.0625 C-25.83 14.0625 -26.16 14.0625 -26.5 14.0625 C-26.57427838 10.71997276 -26.56546953 8.2589086 -25.5 5.0625 C-23.93359375 3.9296875 -23.93359375 3.9296875 -21.9375 2.9375 C-20.97650391 2.43863281 -20.97650391 2.43863281 -19.99609375 1.9296875 C-13.57199082 -0.30216047 -6.71739647 -0.0711125 0 0 Z " fill="#B2C6E0" transform="translate(138.5,165.9375)"/>
<path d="M0 0 C0 7.92 0 15.84 0 24 C-3.3 24 -6.6 24 -10 24 C-10 23.67 -10 23.34 -10 23 C-7.36 23 -4.72 23 -2 23 C-2 16.07 -2 9.14 -2 2 C-3.65 2.33 -5.3 2.66 -7 3 C-4.49955934 -0.00052879 -4.2621484 0 0 0 Z " fill="#6A90C3" transform="translate(213,122)"/>
<path d="M0 0 C-3.34770011 2.8120681 -6.97462407 4.40932725 -11 6 C-11.70125 6.29390625 -12.4025 6.5878125 -13.125 6.890625 C-18.63870432 9.12043189 -18.63870432 9.12043189 -22 8 C-19.28348686 6.45570235 -16.55013724 4.94398394 -13.8125 3.4375 C-13.04357422 2.99986328 -12.27464844 2.56222656 -11.48242188 2.11132812 C-4.39400159 -1.75231727 -4.39400159 -1.75231727 0 0 Z " fill="#7095C5" transform="translate(201,122)"/>
<path d="M0 0 C2.91672884 -0.02700675 5.83320677 -0.04684237 8.75 -0.0625 C9.9875 -0.07506836 9.9875 -0.07506836 11.25 -0.08789062 C12.04921875 -0.09111328 12.8484375 -0.09433594 13.671875 -0.09765625 C14.4050293 -0.10289307 15.13818359 -0.10812988 15.89355469 -0.11352539 C18.0461849 0.0024891 19.9314135 0.40926729 22 1 C22 1.66 22 2.32 22 3 C15.07 2.67 8.14 2.34 1 2 C0.67 1.34 0.34 0.68 0 0 Z " fill="#ECF1F7" transform="translate(130,167)"/>
<path d="M0 0 C-0.33 0.99 -0.66 1.98 -1 3 C-3.31 3.33 -5.62 3.66 -8 4 C-8 4.66 -8 5.32 -8 6 C-8.99 6.33 -9.98 6.66 -11 7 C-11 5.35 -11 3.7 -11 2 C-9.73392393 1.46770674 -8.46189588 0.94955456 -7.1875 0.4375 C-6.47980469 0.14746094 -5.77210937 -0.14257812 -5.04296875 -0.44140625 C-3 -1 -3 -1 0 0 Z " fill="#1D58A4" transform="translate(124,173)"/>
<path d="M0 0 C3.3 0 6.6 0 10 0 C10 0.33 10 0.66 10 1 C2.70170537 2.88100377 -4.59225491 4.60695059 -12 6 C-11 4 -11 4 -7.6875 2.875 C-4 2 -4 2 0 2 C0 1.34 0 0.68 0 0 Z " fill="#769AC8" transform="translate(187,28)"/>
<path d="M0 0 C0.66 0.99 1.32 1.98 2 3 C0.73308493 3.67408308 -0.53870749 4.33900497 -1.8125 5 C-2.52019531 5.37125 -3.22789062 5.7425 -3.95703125 6.125 C-6 7 -6 7 -9 7 C-9 6.34 -9 5.68 -9 5 C-6.03 3.35 -3.06 1.7 0 0 Z " fill="#4C7BB7" transform="translate(207,115)"/>
<path d="M0 0 C0.66 0.33 1.32 0.66 2 1 C0.77937479 2.44475986 -0.45192126 3.88050764 -1.6875 5.3125 C-2.37199219 6.11300781 -3.05648437 6.91351563 -3.76171875 7.73828125 C-6.01677668 10.01695236 -8.19152343 11.48017643 -11 13 C-9.46356148 9.31930113 -7.21849055 7.01224796 -4.375 4.25 C-3.55773437 3.45078125 -2.74046875 2.6515625 -1.8984375 1.828125 C-0.95871094 0.92320313 -0.95871094 0.92320313 0 0 Z " fill="#B5C8E1" transform="translate(92,107)"/>
<path d="M0 0 C0.66 0.33 1.32 0.66 2 1 C0.515 2.485 0.515 2.485 -1 4 C-0.67 4.66 -0.34 5.32 0 6 C-1.98 6.99 -1.98 6.99 -4 8 C-4 7.01 -4 6.02 -4 5 C-5.32 4.67 -6.64 4.34 -8 4 C-6.71349294 3.30289269 -5.42059335 2.61757124 -4.125 1.9375 C-3.40570313 1.55464844 -2.68640625 1.17179687 -1.9453125 0.77734375 C-1.30335938 0.52082031 -0.66140625 0.26429687 0 0 Z " fill="#D5E0EE" transform="translate(209,117)"/>
<path d="M0 0 C1.32 0.33 2.64 0.66 4 1 C3.34 1.66 2.68 2.32 2 3 C3.32 3.66 4.64 4.32 6 5 C2.7 5.66 -0.6 6.32 -4 7 C-3.67 6.34 -3.34 5.68 -3 5 C-2.01 5 -1.02 5 0 5 C0 3.35 0 1.7 0 0 Z " fill="#D8E2EF" transform="translate(123,149)"/>
<path d="M0 0 C0.99 0.66 1.98 1.32 3 2 C1.73392393 2.53229326 0.46189588 3.05044544 -0.8125 3.5625 C-1.52019531 3.85253906 -2.22789062 4.14257812 -2.95703125 4.44140625 C-5 5 -5 5 -8 4 C-5.36 2.68 -2.72 1.36 0 0 Z " fill="#A8BFDC" transform="translate(187,126)"/>
<path d="M0 0 C1.32 0 2.64 0 4 0 C4 0.99 4 1.98 4 3 C1.69 3.33 -0.62 3.66 -3 4 C-1.75 2 -1.75 2 0 0 Z " fill="#FBFCFD" transform="translate(188,128)"/>
<path d="M0 0 C0.33 1.65 0.66 3.3 1 5 C-0.32 5.33 -1.64 5.66 -3 6 C-3 5.01 -3 4.02 -3 3 C-3.99 2.67 -4.98 2.34 -6 2 C-2.25 0 -2.25 0 0 0 Z " fill="#4172B3" transform="translate(112,89)"/>
<path d="M0 0 C-2.52956528 3.0916909 -5.22454612 3.90931332 -9 5 C-9 4.01 -9 3.02 -9 2 C-5.86501708 0.14223235 -3.62528568 -0.20140476 0 0 Z " fill="#E3EAF3" transform="translate(183,151)"/>
<path d="M0 0 C-0.33 0.99 -0.66 1.98 -1 3 C-2.65 3.33 -4.3 3.66 -6 4 C-5.67 3.34 -5.34 2.68 -5 2 C-5.66 1.34 -6.32 0.68 -7 0 C-3.86650268 -1.04449911 -3.01031744 -0.93423645 0 0 Z " fill="#B5C8E1" transform="translate(186,150)"/>
<path d="M0 0 C-2.70188004 1.80125336 -4.93057703 3.00243753 -8 4 C-8.99 3.67 -9.98 3.34 -11 3 C-7.16674383 0.29417212 -4.67461851 -0.32613618 0 0 Z " fill="#DEE7F2" transform="translate(182,131)"/>
<path d="M0 0 C-0.33 0.66 -0.66 1.32 -1 2 C-3.4375 2.75 -3.4375 2.75 -6 3 C-6.66 2.34 -7.32 1.68 -8 1 C-4.93251126 -0.86240388 -3.40254489 -1.2151946 0 0 Z " fill="#DBE4F0" transform="translate(121,170)"/>
<path d="M0 0 C0.66 0.33 1.32 0.66 2 1 C1.625 2.9375 1.625 2.9375 1 5 C0.01 5.495 0.01 5.495 -1 6 C-1 5.34 -1 4.68 -1 4 C-2.32 4.33 -3.64 4.66 -5 5 C-3.35 3.35 -1.7 1.7 0 0 Z " fill="#BBCDE3" transform="translate(159,160)"/>
<path d="M0 0 C3.625 -0.1875 3.625 -0.1875 7 0 C6.67 0.66 6.34 1.32 6 2 C3.35139573 2.59355614 0.70802678 2.74209269 -2 3 C-1.34 2.01 -0.68 1.02 0 0 Z " fill="#EDF2F8" transform="translate(187,148)"/>
<path d="M0 0 C0 0.66 0 1.32 0 2 C0.99 2.66 1.98 3.32 3 4 C1.02 4.33 -0.96 4.66 -3 5 C-3 4.34 -3 3.68 -3 3 C-3.66 2.67 -4.32 2.34 -5 2 C-2 0 -2 0 0 0 Z " fill="#DCE5F0" transform="translate(195,125)"/>
<path d="M0 0 C0 0.99 0 1.98 0 3 C-2.64738916 4.4606285 -3.89448334 5 -7 5 C-7 4.34 -7 3.68 -7 3 C-2.61538462 0 -2.61538462 0 0 0 Z " fill="#1A56A3" transform="translate(215,112)"/>
</svg>
